<?xml version='1.0' encoding='UTF-8' standalone='no'?>
<!-- Created with Fritzing (http://www.fritzing.org/) -->
<svg xmlns="http://www.w3.org/2000/svg" x="0in"  xmlns:svg="http://www.w3.org/2000/svg" height="3.11024in" y="0in" width="4.11417in" viewBox="0 0 296.22 223.937" baseProfile="tiny" version="1.2">
 <g partID="57832">
  <g id="silkscreen0">
   <rect x="0.288" stroke-width="0.576" height="223.361" stroke="black" y="0.288" fill="none" width="295.645"/>
  </g>
 </g>
 <g partID="57830">
  <g id="board">
   <rect x="0.288" stroke-width="0.5" height="223.361" stroke="black" y="0.288" fill="none" width="295.645" fill-opacity="0.5" id="boardoutline"/>
  </g>
 </g>
 <g partID="57832">
  <g id="silkscreen0">
   <rect x="0.288" stroke-width="0.576" height="223.361" stroke="black" y="0.288" fill="none" width="295.645"/>
  </g>
 </g>
 <g partID="17288690">
  <g transform="translate(15.564,196.636)">
   <g transform="matrix(0,-1,1,0,0,0)">
    <g id="copper0">
     <circle cx="5.04" stroke-width="2.16" stroke="white" fill="white" cy="5.04" r="2.088" id="connector0pin"/>
     <circle cx="5.04" stroke-width="2.16" stroke="white" fill="white" cy="12.24" r="2.088" id="connector1pin"/>
     <circle cx="5.04" stroke-width="2.16" stroke="white" fill="white" cy="19.44" r="2.088" id="connector2pin"/>
     <circle cx="5.04" stroke-width="2.16" stroke="white" fill="white" cy="26.64" r="2.088" id="connector3pin"/>
     <circle cx="5.04" stroke-width="2.16" stroke="white" fill="white" cy="33.84" r="2.088" id="connector4pin"/>
    </g>
   </g>
  </g>
 </g>
 <g partID="16758550">
  <g transform="translate(139.764,139.756)">
   <g id="copper0">
    <circle cx="5.04" stroke-width="2.16" stroke="white" fill="white" cy="5.04" r="2.088" id="connector0pin"/>
   </g>
  </g>
 </g>
 <g partID="16758530">
  <g transform="translate(146.964,146.956)">
   <g id="copper0">
    <circle cx="5.04" stroke-width="2.16" stroke="white" fill="white" cy="5.04" r="2.088" id="connector0pin"/>
   </g>
  </g>
 </g>
 <g partID="16399080">
  <g transform="translate(279.069,163.861)">
   <g id="copper0">
    <circle cx="6.13543" stroke-width="0.72" stroke="white" fill="white" cy="6.13543" r="4.53543" id="nonconn0"/>
   </g>
  </g>
 </g>
 <g partID="16392210">
  <g transform="translate(142.269,48.6603)">
   <g id="copper0">
    <circle cx="6.13543" stroke-width="0.72" stroke="white" fill="white" cy="6.13543" r="4.53543" id="nonconn0"/>
   </g>
  </g>
 </g>
 <g partID="16701490">
  <g transform="translate(221.844,26.3558)">
   <g transform="matrix(0,1,-1,0,0,0)">
    <g id="copper0">
     <circle cx="5.04" stroke-width="2.16" stroke="white" fill="white" cy="5.04" r="2.088" id="connector0pin"/>
     <circle cx="5.04" stroke-width="2.16" stroke="white" fill="white" cy="12.24" r="2.088" id="connector1pin"/>
     <circle cx="5.04" stroke-width="2.16" stroke="white" fill="white" cy="19.44" r="2.088" id="connector2pin"/>
     <circle cx="5.04" stroke-width="2.16" stroke="white" fill="white" cy="26.64" r="2.088" id="connector3pin"/>
     <circle cx="5.04" stroke-width="2.16" stroke="white" fill="white" cy="33.84" r="2.088" id="connector4pin"/>
     <circle cx="5.04" stroke-width="2.16" stroke="white" fill="white" cy="41.04" r="2.088" id="connector5pin"/>
     <circle cx="5.04" stroke-width="2.16" stroke="white" fill="white" cy="48.24" r="2.088" id="connector6pin"/>
     <circle cx="5.04" stroke-width="2.16" stroke="white" fill="white" cy="55.44" r="2.088" id="connector7pin"/>
     <circle cx="5.04" stroke-width="2.16" stroke="white" fill="white" cy="62.64" r="2.088" id="connector8pin"/>
     <circle cx="5.04" stroke-width="2.16" stroke="white" fill="white" cy="69.84" r="2.088" id="connector9pin"/>
    </g>
   </g>
  </g>
 </g>
 <g partID="16698910">
  <g transform="translate(293.844,11.9558)">
   <g transform="matrix(0,1,-1,0,0,0)">
    <g id="copper0">
     <circle cx="5.04" stroke-width="2.16" stroke="white" fill="white" cy="5.04" r="2.088" id="connector0pin"/>
     <circle cx="5.04" stroke-width="2.16" stroke="white" fill="white" cy="12.24" r="2.088" id="connector1pin"/>
     <circle cx="5.04" stroke-width="2.16" stroke="white" fill="white" cy="19.44" r="2.088" id="connector2pin"/>
     <circle cx="5.04" stroke-width="2.16" stroke="white" fill="white" cy="26.64" r="2.088" id="connector3pin"/>
     <circle cx="5.04" stroke-width="2.16" stroke="white" fill="white" cy="33.84" r="2.088" id="connector4pin"/>
     <circle cx="5.04" stroke-width="2.16" stroke="white" fill="white" cy="41.04" r="2.088" id="connector5pin"/>
     <circle cx="5.04" stroke-width="2.16" stroke="white" fill="white" cy="48.24" r="2.088" id="connector6pin"/>
     <circle cx="5.04" stroke-width="2.16" stroke="white" fill="white" cy="55.44" r="2.088" id="connector7pin"/>
     <circle cx="5.04" stroke-width="2.16" stroke="white" fill="white" cy="62.64" r="2.088" id="connector8pin"/>
     <circle cx="5.04" stroke-width="2.16" stroke="white" fill="white" cy="69.84" r="2.088" id="connector9pin"/>
    </g>
   </g>
  </g>
 </g>
 <g partID="16368130">
  <g transform="translate(176.458,163.442)">
   <g transform="matrix(0,-1,1,0,0,0)">
    <g gorn="0.1.0" id="copper0">
     <rect x="2.34" gorn="0.1.0.0" height="3.96" stroke-width="2.16" y="2.34" stroke="white" width="3.96" fill="white" id="square"/>
     <circle cx="4.32" gorn="0.1.0.1" stroke-width="2.16" stroke="white" fill="white" cy="4.32" r="1.98" id="connector0pin"/>
     <circle cx="25.92" gorn="0.1.0.2" stroke-width="2.16" stroke="white" fill="white" cy="4.32" r="1.98" id="connector27pin"/>
     <circle cx="4.32" gorn="0.1.0.3" stroke-width="2.16" stroke="white" fill="white" cy="11.52" r="1.98" id="connector1pin"/>
     <circle cx="25.92" gorn="0.1.0.4" stroke-width="2.16" stroke="white" fill="white" cy="11.52" r="1.98" id="connector26pin"/>
     <circle cx="4.32" gorn="0.1.0.5" stroke-width="2.16" stroke="white" fill="white" cy="18.72" r="1.98" id="connector2pin"/>
     <circle cx="25.92" gorn="0.1.0.6" stroke-width="2.16" stroke="white" fill="white" cy="18.72" r="1.98" id="connector25pin"/>
     <circle cx="4.32" gorn="0.1.0.7" stroke-width="2.16" stroke="white" fill="white" cy="25.92" r="1.98" id="connector3pin"/>
     <circle cx="25.92" gorn="0.1.0.8" stroke-width="2.16" stroke="white" fill="white" cy="25.92" r="1.98" id="connector24pin"/>
     <circle cx="4.32" gorn="0.1.0.9" stroke-width="2.16" stroke="white" fill="white" cy="33.12" r="1.98" id="connector4pin"/>
     <circle cx="25.92" gorn="0.1.0.10" stroke-width="2.16" stroke="white" fill="white" cy="33.12" r="1.98" id="connector23pin"/>
     <circle cx="4.32" gorn="0.1.0.11" stroke-width="2.16" stroke="white" fill="white" cy="40.32" r="1.98" id="connector5pin"/>
     <circle cx="25.92" gorn="0.1.0.12" stroke-width="2.16" stroke="white" fill="white" cy="40.32" r="1.98" id="connector22pin"/>
     <circle cx="4.32" gorn="0.1.0.13" stroke-width="2.16" stroke="white" fill="white" cy="47.52" r="1.98" id="connector6pin"/>
     <circle cx="25.92" gorn="0.1.0.14" stroke-width="2.16" stroke="white" fill="white" cy="47.52" r="1.98" id="connector21pin"/>
     <circle cx="4.32" gorn="0.1.0.15" stroke-width="2.16" stroke="white" fill="white" cy="54.72" r="1.98" id="connector7pin"/>
     <circle cx="25.92" gorn="0.1.0.16" stroke-width="2.16" stroke="white" fill="white" cy="54.72" r="1.98" id="connector20pin"/>
     <circle cx="4.32" gorn="0.1.0.17" stroke-width="2.16" stroke="white" fill="white" cy="61.92" r="1.98" id="connector8pin"/>
     <circle cx="25.92" gorn="0.1.0.18" stroke-width="2.16" stroke="white" fill="white" cy="61.92" r="1.98" id="connector19pin"/>
     <circle cx="4.32" gorn="0.1.0.19" stroke-width="2.16" stroke="white" fill="white" cy="69.12" r="1.98" id="connector9pin"/>
     <circle cx="25.92" gorn="0.1.0.20" stroke-width="2.16" stroke="white" fill="white" cy="69.12" r="1.98" id="connector18pin"/>
     <circle cx="4.32" gorn="0.1.0.21" stroke-width="2.16" stroke="white" fill="white" cy="76.32" r="1.98" id="connector10pin"/>
     <circle cx="25.92" gorn="0.1.0.22" stroke-width="2.16" stroke="white" fill="white" cy="76.32" r="1.98" id="connector17pin"/>
     <circle cx="4.32" gorn="0.1.0.23" stroke-width="2.16" stroke="white" fill="white" cy="83.52" r="1.98" id="connector11pin"/>
     <circle cx="25.92" gorn="0.1.0.24" stroke-width="2.16" stroke="white" fill="white" cy="83.52" r="1.98" id="connector16pin"/>
     <circle cx="4.32" gorn="0.1.0.25" stroke-width="2.16" stroke="white" fill="white" cy="90.72" r="1.98" id="connector12pin"/>
     <circle cx="25.92" gorn="0.1.0.26" stroke-width="2.16" stroke="white" fill="white" cy="90.72" r="1.98" id="connector15pin"/>
     <circle cx="4.32" gorn="0.1.0.27" stroke-width="2.16" stroke="white" fill="white" cy="97.92" r="1.98" id="connector13pin"/>
     <circle cx="25.92" gorn="0.1.0.28" stroke-width="2.16" stroke="white" fill="white" cy="97.92" r="1.98" id="connector14pin"/>
    </g>
   </g>
  </g>
 </g>
 <g partID="16265340">
  <g transform="translate(5.46885,48.6603)">
   <g id="copper0">
    <circle cx="6.13543" stroke-width="0.72" stroke="white" fill="white" cy="6.13543" r="4.53543" id="nonconn0"/>
   </g>
  </g>
 </g>
 <g partID="16696870">
  <g transform="translate(149.844,11.9558)">
   <g transform="matrix(0,1,-1,0,0,0)">
    <g id="copper0">
     <circle cx="5.04" stroke-width="2.16" stroke="white" fill="white" cy="5.04" r="2.088" id="connector0pin"/>
     <circle cx="5.04" stroke-width="2.16" stroke="white" fill="white" cy="12.24" r="2.088" id="connector1pin"/>
     <circle cx="5.04" stroke-width="2.16" stroke="white" fill="white" cy="19.44" r="2.088" id="connector2pin"/>
     <circle cx="5.04" stroke-width="2.16" stroke="white" fill="white" cy="26.64" r="2.088" id="connector3pin"/>
     <circle cx="5.04" stroke-width="2.16" stroke="white" fill="white" cy="33.84" r="2.088" id="connector4pin"/>
     <circle cx="5.04" stroke-width="2.16" stroke="white" fill="white" cy="41.04" r="2.088" id="connector5pin"/>
     <circle cx="5.04" stroke-width="2.16" stroke="white" fill="white" cy="48.24" r="2.088" id="connector6pin"/>
     <circle cx="5.04" stroke-width="2.16" stroke="white" fill="white" cy="55.44" r="2.088" id="connector7pin"/>
     <circle cx="5.04" stroke-width="2.16" stroke="white" fill="white" cy="62.64" r="2.088" id="connector8pin"/>
     <circle cx="5.04" stroke-width="2.16" stroke="white" fill="white" cy="69.84" r="2.088" id="connector9pin"/>
    </g>
   </g>
  </g>
 </g>
 <g partID="16700470">
  <g transform="translate(149.844,26.3558)">
   <g transform="matrix(0,1,-1,0,0,0)">
    <g id="copper0">
     <circle cx="5.04" stroke-width="2.16" stroke="white" fill="white" cy="5.04" r="2.088" id="connector0pin"/>
     <circle cx="5.04" stroke-width="2.16" stroke="white" fill="white" cy="12.24" r="2.088" id="connector1pin"/>
     <circle cx="5.04" stroke-width="2.16" stroke="white" fill="white" cy="19.44" r="2.088" id="connector2pin"/>
     <circle cx="5.04" stroke-width="2.16" stroke="white" fill="white" cy="26.64" r="2.088" id="connector3pin"/>
     <circle cx="5.04" stroke-width="2.16" stroke="white" fill="white" cy="33.84" r="2.088" id="connector4pin"/>
     <circle cx="5.04" stroke-width="2.16" stroke="white" fill="white" cy="41.04" r="2.088" id="connector5pin"/>
     <circle cx="5.04" stroke-width="2.16" stroke="white" fill="white" cy="48.24" r="2.088" id="connector6pin"/>
     <circle cx="5.04" stroke-width="2.16" stroke="white" fill="white" cy="55.44" r="2.088" id="connector7pin"/>
     <circle cx="5.04" stroke-width="2.16" stroke="white" fill="white" cy="62.64" r="2.088" id="connector8pin"/>
     <circle cx="5.04" stroke-width="2.16" stroke="white" fill="white" cy="69.84" r="2.088" id="connector9pin"/>
    </g>
   </g>
  </g>
 </g>
 <g partID="16696330">
  <g transform="translate(77.844,11.9558)">
   <g transform="matrix(0,1,-1,0,0,0)">
    <g id="copper0">
     <circle cx="5.04" stroke-width="2.16" stroke="white" fill="white" cy="5.04" r="2.088" id="connector0pin"/>
     <circle cx="5.04" stroke-width="2.16" stroke="white" fill="white" cy="12.24" r="2.088" id="connector1pin"/>
     <circle cx="5.04" stroke-width="2.16" stroke="white" fill="white" cy="19.44" r="2.088" id="connector2pin"/>
     <circle cx="5.04" stroke-width="2.16" stroke="white" fill="white" cy="26.64" r="2.088" id="connector3pin"/>
     <circle cx="5.04" stroke-width="2.16" stroke="white" fill="white" cy="33.84" r="2.088" id="connector4pin"/>
     <circle cx="5.04" stroke-width="2.16" stroke="white" fill="white" cy="41.04" r="2.088" id="connector5pin"/>
     <circle cx="5.04" stroke-width="2.16" stroke="white" fill="white" cy="48.24" r="2.088" id="connector6pin"/>
     <circle cx="5.04" stroke-width="2.16" stroke="white" fill="white" cy="55.44" r="2.088" id="connector7pin"/>
     <circle cx="5.04" stroke-width="2.16" stroke="white" fill="white" cy="62.64" r="2.088" id="connector8pin"/>
     <circle cx="5.04" stroke-width="2.16" stroke="white" fill="white" cy="69.84" r="2.088" id="connector9pin"/>
    </g>
   </g>
  </g>
 </g>
 <g partID="16699930">
  <g transform="translate(77.844,26.3558)">
   <g transform="matrix(0,1,-1,0,0,0)">
    <g id="copper0">
     <circle cx="5.04" stroke-width="2.16" stroke="white" fill="white" cy="5.04" r="2.088" id="connector0pin"/>
     <circle cx="5.04" stroke-width="2.16" stroke="white" fill="white" cy="12.24" r="2.088" id="connector1pin"/>
     <circle cx="5.04" stroke-width="2.16" stroke="white" fill="white" cy="19.44" r="2.088" id="connector2pin"/>
     <circle cx="5.04" stroke-width="2.16" stroke="white" fill="white" cy="26.64" r="2.088" id="connector3pin"/>
     <circle cx="5.04" stroke-width="2.16" stroke="white" fill="white" cy="33.84" r="2.088" id="connector4pin"/>
     <circle cx="5.04" stroke-width="2.16" stroke="white" fill="white" cy="41.04" r="2.088" id="connector5pin"/>
     <circle cx="5.04" stroke-width="2.16" stroke="white" fill="white" cy="48.24" r="2.088" id="connector6pin"/>
     <circle cx="5.04" stroke-width="2.16" stroke="white" fill="white" cy="55.44" r="2.088" id="connector7pin"/>
     <circle cx="5.04" stroke-width="2.16" stroke="white" fill="white" cy="62.64" r="2.088" id="connector8pin"/>
     <circle cx="5.04" stroke-width="2.16" stroke="white" fill="white" cy="69.84" r="2.088" id="connector9pin"/>
    </g>
   </g>
  </g>
 </g>
 <g partID="16399020">
  <g transform="translate(5.46885,163.861)">
   <g id="copper0">
    <circle cx="6.13543" stroke-width="0.72" stroke="white" fill="white" cy="6.13543" r="4.53543" id="nonconn0"/>
   </g>
  </g>
 </g>
 <g partID="16391180">
  <g transform="translate(98.7496,162.611)">
   <g id="copper0">
    <g id="copper1">
     <circle cx="2.88" stroke-width="2.16" stroke="white" fill="white" cy="2.88" r="1.8" id="connector0pin"/>
     <circle cx="10.0933" stroke-width="2.16" stroke="white" fill="white" cy="2.88" r="1.8" id="connector1pin"/>
    </g>
   </g>
  </g>
 </g>
 <g partID="16398950">
  <g transform="translate(279.069,48.6603)">
   <g id="copper0">
    <circle cx="6.13543" stroke-width="0.72" stroke="white" fill="white" cy="6.13543" r="4.53543" id="nonconn0"/>
   </g>
  </g>
 </g>
 <g partID="16390350">
  <g transform="translate(235.51,163.516)">
   <g id="copper0">
    <g id="copper1">
     <circle cx="2.88" stroke-width="2.16" stroke="white" fill="white" cy="2.88" r="1.8" id="connector0pin"/>
     <circle cx="10.0933" stroke-width="2.16" stroke="white" fill="white" cy="2.88" r="1.8" id="connector1pin"/>
    </g>
   </g>
  </g>
 </g>
 <g partID="16697890">
  <g transform="translate(221.844,11.9558)">
   <g transform="matrix(0,1,-1,0,0,0)">
    <g id="copper0">
     <circle cx="5.04" stroke-width="2.16" stroke="white" fill="white" cy="5.04" r="2.088" id="connector0pin"/>
     <circle cx="5.04" stroke-width="2.16" stroke="white" fill="white" cy="12.24" r="2.088" id="connector1pin"/>
     <circle cx="5.04" stroke-width="2.16" stroke="white" fill="white" cy="19.44" r="2.088" id="connector2pin"/>
     <circle cx="5.04" stroke-width="2.16" stroke="white" fill="white" cy="26.64" r="2.088" id="connector3pin"/>
     <circle cx="5.04" stroke-width="2.16" stroke="white" fill="white" cy="33.84" r="2.088" id="connector4pin"/>
     <circle cx="5.04" stroke-width="2.16" stroke="white" fill="white" cy="41.04" r="2.088" id="connector5pin"/>
     <circle cx="5.04" stroke-width="2.16" stroke="white" fill="white" cy="48.24" r="2.088" id="connector6pin"/>
     <circle cx="5.04" stroke-width="2.16" stroke="white" fill="white" cy="55.44" r="2.088" id="connector7pin"/>
     <circle cx="5.04" stroke-width="2.16" stroke="white" fill="white" cy="62.64" r="2.088" id="connector8pin"/>
     <circle cx="5.04" stroke-width="2.16" stroke="white" fill="white" cy="69.84" r="2.088" id="connector9pin"/>
    </g>
   </g>
  </g>
 </g>
 <g partID="16702510">
  <g transform="translate(293.844,26.3558)">
   <g transform="matrix(0,1,-1,0,0,0)">
    <g id="copper0">
     <circle cx="5.04" stroke-width="2.16" stroke="white" fill="white" cy="5.04" r="2.088" id="connector0pin"/>
     <circle cx="5.04" stroke-width="2.16" stroke="white" fill="white" cy="12.24" r="2.088" id="connector1pin"/>
     <circle cx="5.04" stroke-width="2.16" stroke="white" fill="white" cy="19.44" r="2.088" id="connector2pin"/>
     <circle cx="5.04" stroke-width="2.16" stroke="white" fill="white" cy="26.64" r="2.088" id="connector3pin"/>
     <circle cx="5.04" stroke-width="2.16" stroke="white" fill="white" cy="33.84" r="2.088" id="connector4pin"/>
     <circle cx="5.04" stroke-width="2.16" stroke="white" fill="white" cy="41.04" r="2.088" id="connector5pin"/>
     <circle cx="5.04" stroke-width="2.16" stroke="white" fill="white" cy="48.24" r="2.088" id="connector6pin"/>
     <circle cx="5.04" stroke-width="2.16" stroke="white" fill="white" cy="55.44" r="2.088" id="connector7pin"/>
     <circle cx="5.04" stroke-width="2.16" stroke="white" fill="white" cy="62.64" r="2.088" id="connector8pin"/>
     <circle cx="5.04" stroke-width="2.16" stroke="white" fill="white" cy="69.84" r="2.088" id="connector9pin"/>
    </g>
   </g>
  </g>
 </g>
 <g partID="16240960">
  <g transform="translate(39.684,163.516)">
   <g transform="matrix(0,-1,1,0,0,0)">
    <g gorn="0.1.0" id="copper0">
     <rect x="2.34" gorn="0.1.0.0" height="3.96" stroke-width="2.16" y="2.34" stroke="white" width="3.96" fill="white" id="square"/>
     <circle cx="4.32" gorn="0.1.0.1" stroke-width="2.16" stroke="white" fill="white" cy="4.32" r="1.98" id="connector0pin"/>
     <circle cx="25.92" gorn="0.1.0.2" stroke-width="2.16" stroke="white" fill="white" cy="4.32" r="1.98" id="connector27pin"/>
     <circle cx="4.32" gorn="0.1.0.3" stroke-width="2.16" stroke="white" fill="white" cy="11.52" r="1.98" id="connector1pin"/>
     <circle cx="25.92" gorn="0.1.0.4" stroke-width="2.16" stroke="white" fill="white" cy="11.52" r="1.98" id="connector26pin"/>
     <circle cx="4.32" gorn="0.1.0.5" stroke-width="2.16" stroke="white" fill="white" cy="18.72" r="1.98" id="connector2pin"/>
     <circle cx="25.92" gorn="0.1.0.6" stroke-width="2.16" stroke="white" fill="white" cy="18.72" r="1.98" id="connector25pin"/>
     <circle cx="4.32" gorn="0.1.0.7" stroke-width="2.16" stroke="white" fill="white" cy="25.92" r="1.98" id="connector3pin"/>
     <circle cx="25.92" gorn="0.1.0.8" stroke-width="2.16" stroke="white" fill="white" cy="25.92" r="1.98" id="connector24pin"/>
     <circle cx="4.32" gorn="0.1.0.9" stroke-width="2.16" stroke="white" fill="white" cy="33.12" r="1.98" id="connector4pin"/>
     <circle cx="25.92" gorn="0.1.0.10" stroke-width="2.16" stroke="white" fill="white" cy="33.12" r="1.98" id="connector23pin"/>
     <circle cx="4.32" gorn="0.1.0.11" stroke-width="2.16" stroke="white" fill="white" cy="40.32" r="1.98" id="connector5pin"/>
     <circle cx="25.92" gorn="0.1.0.12" stroke-width="2.16" stroke="white" fill="white" cy="40.32" r="1.98" id="connector22pin"/>
     <circle cx="4.32" gorn="0.1.0.13" stroke-width="2.16" stroke="white" fill="white" cy="47.52" r="1.98" id="connector6pin"/>
     <circle cx="25.92" gorn="0.1.0.14" stroke-width="2.16" stroke="white" fill="white" cy="47.52" r="1.98" id="connector21pin"/>
     <circle cx="4.32" gorn="0.1.0.15" stroke-width="2.16" stroke="white" fill="white" cy="54.72" r="1.98" id="connector7pin"/>
     <circle cx="25.92" gorn="0.1.0.16" stroke-width="2.16" stroke="white" fill="white" cy="54.72" r="1.98" id="connector20pin"/>
     <circle cx="4.32" gorn="0.1.0.17" stroke-width="2.16" stroke="white" fill="white" cy="61.92" r="1.98" id="connector8pin"/>
     <circle cx="25.92" gorn="0.1.0.18" stroke-width="2.16" stroke="white" fill="white" cy="61.92" r="1.98" id="connector19pin"/>
     <circle cx="4.32" gorn="0.1.0.19" stroke-width="2.16" stroke="white" fill="white" cy="69.12" r="1.98" id="connector9pin"/>
     <circle cx="25.92" gorn="0.1.0.20" stroke-width="2.16" stroke="white" fill="white" cy="69.12" r="1.98" id="connector18pin"/>
     <circle cx="4.32" gorn="0.1.0.21" stroke-width="2.16" stroke="white" fill="white" cy="76.32" r="1.98" id="connector10pin"/>
     <circle cx="25.92" gorn="0.1.0.22" stroke-width="2.16" stroke="white" fill="white" cy="76.32" r="1.98" id="connector17pin"/>
     <circle cx="4.32" gorn="0.1.0.23" stroke-width="2.16" stroke="white" fill="white" cy="83.52" r="1.98" id="connector11pin"/>
     <circle cx="25.92" gorn="0.1.0.24" stroke-width="2.16" stroke="white" fill="white" cy="83.52" r="1.98" id="connector16pin"/>
     <circle cx="4.32" gorn="0.1.0.25" stroke-width="2.16" stroke="white" fill="white" cy="90.72" r="1.98" id="connector12pin"/>
     <circle cx="25.92" gorn="0.1.0.26" stroke-width="2.16" stroke="white" fill="white" cy="90.72" r="1.98" id="connector15pin"/>
     <circle cx="4.32" gorn="0.1.0.27" stroke-width="2.16" stroke="white" fill="white" cy="97.92" r="1.98" id="connector13pin"/>
     <circle cx="25.92" gorn="0.1.0.28" stroke-width="2.16" stroke="white" fill="white" cy="97.92" r="1.98" id="connector14pin"/>
    </g>
   </g>
  </g>
 </g>
 <g partID="17283450">
  <g transform="translate(240.564,196.636)">
   <g transform="matrix(0,-1,1,0,0,0)">
    <g id="copper0">
     <circle cx="5.04" stroke-width="2.16" stroke="white" fill="white" cy="5.04" r="2.088" id="connector0pin"/>
     <circle cx="5.04" stroke-width="2.16" stroke="white" fill="white" cy="12.24" r="2.088" id="connector1pin"/>
     <circle cx="5.04" stroke-width="2.16" stroke="white" fill="white" cy="19.44" r="2.088" id="connector2pin"/>
     <circle cx="5.04" stroke-width="2.16" stroke="white" fill="white" cy="26.64" r="2.088" id="connector3pin"/>
     <circle cx="5.04" stroke-width="2.16" stroke="white" fill="white" cy="33.84" r="2.088" id="connector4pin"/>
    </g>
   </g>
  </g>
 </g>
 <g partID="16399840">
  <g transform="translate(242.586,170.578)">
   <g id="copper0">
    <circle cx="3.01733" stroke-width="1.57039" stroke="white" fill="white" cy="3.01733" r="0.992124" id="connector0pin"/>
   </g>
  </g>
 </g>
 <g partID="16400930">
  <g transform="translate(235.387,181.378)">
   <g id="copper0">
    <circle cx="3.01733" stroke-width="1.57039" stroke="white" fill="white" cy="3.01733" r="0.992124" id="connector0pin"/>
   </g>
  </g>
 </g>
 <g partID="16407010">
  <g transform="translate(127.387,175.978)">
   <g id="copper0">
    <circle cx="3.01733" stroke-width="1.57039" stroke="white" fill="white" cy="3.01733" r="0.992124" id="connector0pin"/>
   </g>
  </g>
 </g>
 <g partID="16407410">
  <g transform="translate(119.287,187.678)">
   <g id="copper0">
    <circle cx="3.01733" stroke-width="1.57039" stroke="white" fill="white" cy="3.01733" r="0.992124" id="connector0pin"/>
   </g>
  </g>
 </g>
 <g partID="16421100">
  <g transform="translate(97.6867,181.378)">
   <g id="copper0">
    <circle cx="3.01733" stroke-width="1.57039" stroke="white" fill="white" cy="3.01733" r="0.992124" id="connector0pin"/>
   </g>
  </g>
 </g>
 <g partID="16454150">
  <g transform="translate(256.987,143.578)">
   <g id="copper0">
    <circle cx="3.01733" stroke-width="1.57039" stroke="white" fill="white" cy="3.01733" r="0.992124" id="connector0pin"/>
   </g>
  </g>
 </g>
 <g partID="16518530">
  <g transform="translate(271.387,111.178)">
   <g id="copper0">
    <circle cx="3.01733" stroke-width="1.57039" stroke="white" fill="white" cy="3.01733" r="0.992124" id="connector0pin"/>
   </g>
  </g>
 </g>
 <g partID="16520020">
  <g transform="translate(264.187,111.178)">
   <g id="copper0">
    <circle cx="3.01733" stroke-width="1.57039" stroke="white" fill="white" cy="3.01733" r="0.992124" id="connector0pin"/>
   </g>
  </g>
 </g>
 <g partID="16521090">
  <g transform="translate(256.987,111.178)">
   <g id="copper0">
    <circle cx="3.01733" stroke-width="1.57039" stroke="white" fill="white" cy="3.01733" r="0.992124" id="connector0pin"/>
   </g>
  </g>
 </g>
 <g partID="16524200">
  <g transform="translate(249.787,111.178)">
   <g id="copper0">
    <circle cx="3.01733" stroke-width="1.57039" stroke="white" fill="white" cy="3.01733" r="0.992124" id="connector0pin"/>
   </g>
  </g>
 </g>
 <g partID="16525390">
  <g transform="translate(242.587,111.178)">
   <g id="copper0">
    <circle cx="3.01733" stroke-width="1.57039" stroke="white" fill="white" cy="3.01733" r="0.992124" id="connector0pin"/>
   </g>
  </g>
 </g>
 <g partID="16525850">
  <g transform="translate(223.284,95.1158)">
   <g transform="matrix(0,-1,1,0,0,0)">
    <g id="copper0">
     <rect x="2.34" height="3.96" stroke-width="2.16" stroke="white" y="2.34" fill="white" width="3.96" id="square"/>
     <circle cx="4.32" stroke-width="2.16" stroke="white" fill="white" cy="4.32" r="1.98" id="connector0pin"/>
     <circle cx="25.92" stroke-width="2.16" stroke="white" fill="white" cy="4.32" r="1.98" id="connector17pin"/>
     <circle cx="4.32" stroke-width="2.16" stroke="white" fill="white" cy="11.52" r="1.98" id="connector1pin"/>
     <circle cx="25.92" stroke-width="2.16" stroke="white" fill="white" cy="11.52" r="1.98" id="connector16pin"/>
     <circle cx="4.32" stroke-width="2.16" stroke="white" fill="white" cy="18.72" r="1.98" id="connector2pin"/>
     <circle cx="25.92" stroke-width="2.16" stroke="white" fill="white" cy="18.72" r="1.98" id="connector15pin"/>
     <circle cx="4.32" stroke-width="2.16" stroke="white" fill="white" cy="25.92" r="1.98" id="connector3pin"/>
     <circle cx="25.92" stroke-width="2.16" stroke="white" fill="white" cy="25.92" r="1.98" id="connector14pin"/>
     <circle cx="4.32" stroke-width="2.16" stroke="white" fill="white" cy="33.12" r="1.98" id="connector4pin"/>
     <circle cx="25.92" stroke-width="2.16" stroke="white" fill="white" cy="33.12" r="1.98" id="connector13pin"/>
     <circle cx="4.32" stroke-width="2.16" stroke="white" fill="white" cy="40.32" r="1.98" id="connector5pin"/>
     <circle cx="25.92" stroke-width="2.16" stroke="white" fill="white" cy="40.32" r="1.98" id="connector12pin"/>
     <circle cx="4.32" stroke-width="2.16" stroke="white" fill="white" cy="47.52" r="1.98" id="connector6pin"/>
     <circle cx="25.92" stroke-width="2.16" stroke="white" fill="white" cy="47.52" r="1.98" id="connector11pin"/>
     <circle cx="4.32" stroke-width="2.16" stroke="white" fill="white" cy="54.72" r="1.98" id="connector7pin"/>
     <circle cx="25.92" stroke-width="2.16" stroke="white" fill="white" cy="54.72" r="1.98" id="connector10pin"/>
     <circle cx="4.32" stroke-width="2.16" stroke="white" fill="white" cy="61.92" r="1.98" id="connector8pin"/>
     <circle cx="25.92" stroke-width="2.16" stroke="white" fill="white" cy="61.92" r="1.98" id="connector9pin"/>
    </g>
   </g>
  </g>
 </g>
 <g partID="16544600">
  <g transform="translate(151.284,95.1158)">
   <g transform="matrix(0,-1,1,0,0,0)">
    <g id="copper0">
     <rect x="2.34" height="3.96" stroke-width="2.16" stroke="white" y="2.34" fill="white" width="3.96" id="square"/>
     <circle cx="4.32" stroke-width="2.16" stroke="white" fill="white" cy="4.32" r="1.98" id="connector0pin"/>
     <circle cx="25.92" stroke-width="2.16" stroke="white" fill="white" cy="4.32" r="1.98" id="connector17pin"/>
     <circle cx="4.32" stroke-width="2.16" stroke="white" fill="white" cy="11.52" r="1.98" id="connector1pin"/>
     <circle cx="25.92" stroke-width="2.16" stroke="white" fill="white" cy="11.52" r="1.98" id="connector16pin"/>
     <circle cx="4.32" stroke-width="2.16" stroke="white" fill="white" cy="18.72" r="1.98" id="connector2pin"/>
     <circle cx="25.92" stroke-width="2.16" stroke="white" fill="white" cy="18.72" r="1.98" id="connector15pin"/>
     <circle cx="4.32" stroke-width="2.16" stroke="white" fill="white" cy="25.92" r="1.98" id="connector3pin"/>
     <circle cx="25.92" stroke-width="2.16" stroke="white" fill="white" cy="25.92" r="1.98" id="connector14pin"/>
     <circle cx="4.32" stroke-width="2.16" stroke="white" fill="white" cy="33.12" r="1.98" id="connector4pin"/>
     <circle cx="25.92" stroke-width="2.16" stroke="white" fill="white" cy="33.12" r="1.98" id="connector13pin"/>
     <circle cx="4.32" stroke-width="2.16" stroke="white" fill="white" cy="40.32" r="1.98" id="connector5pin"/>
     <circle cx="25.92" stroke-width="2.16" stroke="white" fill="white" cy="40.32" r="1.98" id="connector12pin"/>
     <circle cx="4.32" stroke-width="2.16" stroke="white" fill="white" cy="47.52" r="1.98" id="connector6pin"/>
     <circle cx="25.92" stroke-width="2.16" stroke="white" fill="white" cy="47.52" r="1.98" id="connector11pin"/>
     <circle cx="4.32" stroke-width="2.16" stroke="white" fill="white" cy="54.72" r="1.98" id="connector7pin"/>
     <circle cx="25.92" stroke-width="2.16" stroke="white" fill="white" cy="54.72" r="1.98" id="connector10pin"/>
     <circle cx="4.32" stroke-width="2.16" stroke="white" fill="white" cy="61.92" r="1.98" id="connector8pin"/>
     <circle cx="25.92" stroke-width="2.16" stroke="white" fill="white" cy="61.92" r="1.98" id="connector9pin"/>
    </g>
   </g>
  </g>
 </g>
 <g partID="16575610">
  <g transform="translate(79.284,95.1158)">
   <g transform="matrix(0,-1,1,0,0,0)">
    <g id="copper0">
     <rect x="2.34" height="3.96" stroke-width="2.16" stroke="white" y="2.34" fill="white" width="3.96" id="square"/>
     <circle cx="4.32" stroke-width="2.16" stroke="white" fill="white" cy="4.32" r="1.98" id="connector0pin"/>
     <circle cx="25.92" stroke-width="2.16" stroke="white" fill="white" cy="4.32" r="1.98" id="connector17pin"/>
     <circle cx="4.32" stroke-width="2.16" stroke="white" fill="white" cy="11.52" r="1.98" id="connector1pin"/>
     <circle cx="25.92" stroke-width="2.16" stroke="white" fill="white" cy="11.52" r="1.98" id="connector16pin"/>
     <circle cx="4.32" stroke-width="2.16" stroke="white" fill="white" cy="18.72" r="1.98" id="connector2pin"/>
     <circle cx="25.92" stroke-width="2.16" stroke="white" fill="white" cy="18.72" r="1.98" id="connector15pin"/>
     <circle cx="4.32" stroke-width="2.16" stroke="white" fill="white" cy="25.92" r="1.98" id="connector3pin"/>
     <circle cx="25.92" stroke-width="2.16" stroke="white" fill="white" cy="25.92" r="1.98" id="connector14pin"/>
     <circle cx="4.32" stroke-width="2.16" stroke="white" fill="white" cy="33.12" r="1.98" id="connector4pin"/>
     <circle cx="25.92" stroke-width="2.16" stroke="white" fill="white" cy="33.12" r="1.98" id="connector13pin"/>
     <circle cx="4.32" stroke-width="2.16" stroke="white" fill="white" cy="40.32" r="1.98" id="connector5pin"/>
     <circle cx="25.92" stroke-width="2.16" stroke="white" fill="white" cy="40.32" r="1.98" id="connector12pin"/>
     <circle cx="4.32" stroke-width="2.16" stroke="white" fill="white" cy="47.52" r="1.98" id="connector6pin"/>
     <circle cx="25.92" stroke-width="2.16" stroke="white" fill="white" cy="47.52" r="1.98" id="connector11pin"/>
     <circle cx="4.32" stroke-width="2.16" stroke="white" fill="white" cy="54.72" r="1.98" id="connector7pin"/>
     <circle cx="25.92" stroke-width="2.16" stroke="white" fill="white" cy="54.72" r="1.98" id="connector10pin"/>
     <circle cx="4.32" stroke-width="2.16" stroke="white" fill="white" cy="61.92" r="1.98" id="connector8pin"/>
     <circle cx="25.92" stroke-width="2.16" stroke="white" fill="white" cy="61.92" r="1.98" id="connector9pin"/>
    </g>
   </g>
  </g>
 </g>
 <g partID="16678540">
  <g transform="translate(7.28405,95.1158)">
   <g transform="matrix(0,-1,1,0,0,0)">
    <g id="copper0">
     <rect x="2.34" height="3.96" stroke-width="2.16" stroke="white" y="2.34" fill="white" width="3.96" id="square"/>
     <circle cx="4.32" stroke-width="2.16" stroke="white" fill="white" cy="4.32" r="1.98" id="connector0pin"/>
     <circle cx="25.92" stroke-width="2.16" stroke="white" fill="white" cy="4.32" r="1.98" id="connector17pin"/>
     <circle cx="4.32" stroke-width="2.16" stroke="white" fill="white" cy="11.52" r="1.98" id="connector1pin"/>
     <circle cx="25.92" stroke-width="2.16" stroke="white" fill="white" cy="11.52" r="1.98" id="connector16pin"/>
     <circle cx="4.32" stroke-width="2.16" stroke="white" fill="white" cy="18.72" r="1.98" id="connector2pin"/>
     <circle cx="25.92" stroke-width="2.16" stroke="white" fill="white" cy="18.72" r="1.98" id="connector15pin"/>
     <circle cx="4.32" stroke-width="2.16" stroke="white" fill="white" cy="25.92" r="1.98" id="connector3pin"/>
     <circle cx="25.92" stroke-width="2.16" stroke="white" fill="white" cy="25.92" r="1.98" id="connector14pin"/>
     <circle cx="4.32" stroke-width="2.16" stroke="white" fill="white" cy="33.12" r="1.98" id="connector4pin"/>
     <circle cx="25.92" stroke-width="2.16" stroke="white" fill="white" cy="33.12" r="1.98" id="connector13pin"/>
     <circle cx="4.32" stroke-width="2.16" stroke="white" fill="white" cy="40.32" r="1.98" id="connector5pin"/>
     <circle cx="25.92" stroke-width="2.16" stroke="white" fill="white" cy="40.32" r="1.98" id="connector12pin"/>
     <circle cx="4.32" stroke-width="2.16" stroke="white" fill="white" cy="47.52" r="1.98" id="connector6pin"/>
     <circle cx="25.92" stroke-width="2.16" stroke="white" fill="white" cy="47.52" r="1.98" id="connector11pin"/>
     <circle cx="4.32" stroke-width="2.16" stroke="white" fill="white" cy="54.72" r="1.98" id="connector7pin"/>
     <circle cx="25.92" stroke-width="2.16" stroke="white" fill="white" cy="54.72" r="1.98" id="connector10pin"/>
     <circle cx="4.32" stroke-width="2.16" stroke="white" fill="white" cy="61.92" r="1.98" id="connector8pin"/>
     <circle cx="25.92" stroke-width="2.16" stroke="white" fill="white" cy="61.92" r="1.98" id="connector9pin"/>
    </g>
   </g>
  </g>
 </g>
 <g partID="16528450">
  <g transform="translate(235.387,111.178)">
   <g id="copper0">
    <circle cx="3.01733" stroke-width="1.57039" stroke="white" fill="white" cy="3.01733" r="0.992124" id="connector0pin"/>
   </g>
  </g>
 </g>
 <g partID="16529330">
  <g transform="translate(228.187,111.178)">
   <g id="copper0">
    <circle cx="3.01733" stroke-width="1.57039" stroke="white" fill="white" cy="3.01733" r="0.992124" id="connector0pin"/>
   </g>
  </g>
 </g>
 <g partID="16530050">
  <g transform="translate(220.987,111.178)">
   <g id="copper0">
    <circle cx="3.01733" stroke-width="1.57039" stroke="white" fill="white" cy="3.01733" r="0.992124" id="connector0pin"/>
   </g>
  </g>
 </g>
 <g partID="16538690">
  <g transform="translate(206.587,111.178)">
   <g id="copper0">
    <circle cx="3.01733" stroke-width="1.57039" stroke="white" fill="white" cy="3.01733" r="0.992124" id="connector0pin"/>
   </g>
  </g>
 </g>
 <g partID="16538750">
  <g transform="translate(199.387,111.178)">
   <g id="copper0">
    <circle cx="3.01733" stroke-width="1.57039" stroke="white" fill="white" cy="3.01733" r="0.992124" id="connector0pin"/>
   </g>
  </g>
 </g>
 <g partID="16543760">
  <g transform="translate(156.187,111.178)">
   <g id="copper0">
    <circle cx="3.01733" stroke-width="1.57039" stroke="white" fill="white" cy="3.01733" r="0.992124" id="connector0pin"/>
   </g>
  </g>
 </g>
 <g partID="16543820">
  <g transform="translate(163.387,111.178)">
   <g id="copper0">
    <circle cx="3.01733" stroke-width="1.57039" stroke="white" fill="white" cy="3.01733" r="0.992124" id="connector0pin"/>
   </g>
  </g>
 </g>
 <g partID="16543880">
  <g transform="translate(170.587,111.178)">
   <g id="copper0">
    <circle cx="3.01733" stroke-width="1.57039" stroke="white" fill="white" cy="3.01733" r="0.992124" id="connector0pin"/>
   </g>
  </g>
 </g>
 <g partID="16543940">
  <g transform="translate(177.787,111.178)">
   <g id="copper0">
    <circle cx="3.01733" stroke-width="1.57039" stroke="white" fill="white" cy="3.01733" r="0.992124" id="connector0pin"/>
   </g>
  </g>
 </g>
 <g partID="16544000">
  <g transform="translate(184.987,111.178)">
   <g id="copper0">
    <circle cx="3.01733" stroke-width="1.57039" stroke="white" fill="white" cy="3.01733" r="0.992124" id="connector0pin"/>
   </g>
  </g>
 </g>
 <g partID="16544060">
  <g transform="translate(192.187,111.178)">
   <g id="copper0">
    <circle cx="3.01733" stroke-width="1.57039" stroke="white" fill="white" cy="3.01733" r="0.992124" id="connector0pin"/>
   </g>
  </g>
 </g>
 <g partID="16574390">
  <g transform="translate(84.1867,111.178)">
   <g id="copper0">
    <circle cx="3.01733" stroke-width="1.57039" stroke="white" fill="white" cy="3.01733" r="0.992124" id="connector0pin"/>
   </g>
  </g>
 </g>
 <g partID="16574450">
  <g transform="translate(91.3867,111.178)">
   <g id="copper0">
    <circle cx="3.01733" stroke-width="1.57039" stroke="white" fill="white" cy="3.01733" r="0.992124" id="connector0pin"/>
   </g>
  </g>
 </g>
 <g partID="16574550">
  <g transform="translate(98.5867,111.178)">
   <g id="copper0">
    <circle cx="3.01733" stroke-width="1.57039" stroke="white" fill="white" cy="3.01733" r="0.992124" id="connector0pin"/>
   </g>
  </g>
 </g>
 <g partID="16574630">
  <g transform="translate(105.787,111.178)">
   <g id="copper0">
    <circle cx="3.01733" stroke-width="1.57039" stroke="white" fill="white" cy="3.01733" r="0.992124" id="connector0pin"/>
   </g>
  </g>
 </g>
 <g partID="16574730">
  <g transform="translate(112.987,111.178)">
   <g id="copper0">
    <circle cx="3.01733" stroke-width="1.57039" stroke="white" fill="white" cy="3.01733" r="0.992124" id="connector0pin"/>
   </g>
  </g>
 </g>
 <g partID="16574830">
  <g transform="translate(120.187,111.178)">
   <g id="copper0">
    <circle cx="3.01733" stroke-width="1.57039" stroke="white" fill="white" cy="3.01733" r="0.992124" id="connector0pin"/>
   </g>
  </g>
 </g>
 <g partID="16574930">
  <g transform="translate(127.387,111.178)">
   <g id="copper0">
    <circle cx="3.01733" stroke-width="1.57039" stroke="white" fill="white" cy="3.01733" r="0.992124" id="connector0pin"/>
   </g>
  </g>
 </g>
 <g partID="16575030">
  <g transform="translate(134.587,111.178)">
   <g id="copper0">
    <circle cx="3.01733" stroke-width="1.57039" stroke="white" fill="white" cy="3.01733" r="0.992124" id="connector0pin"/>
   </g>
  </g>
 </g>
 <g partID="16655520">
  <g transform="translate(62.5867,111.178)">
   <g id="copper0">
    <circle cx="3.01733" stroke-width="1.57039" stroke="white" fill="white" cy="3.01733" r="0.992124" id="connector0pin"/>
   </g>
  </g>
 </g>
 <g partID="16655980">
  <g transform="translate(55.3867,111.178)">
   <g id="copper0">
    <circle cx="3.01733" stroke-width="1.57039" stroke="white" fill="white" cy="3.01733" r="0.992124" id="connector0pin"/>
   </g>
  </g>
 </g>
 <g partID="16668130">
  <g transform="translate(33.7867,111.178)">
   <g id="copper0">
    <circle cx="3.01733" stroke-width="1.57039" stroke="white" fill="white" cy="3.01733" r="0.992124" id="connector0pin"/>
   </g>
  </g>
 </g>
 <g partID="16668230">
  <g transform="translate(40.9867,111.178)">
   <g id="copper0">
    <circle cx="3.01733" stroke-width="1.57039" stroke="white" fill="white" cy="3.01733" r="0.992124" id="connector0pin"/>
   </g>
  </g>
 </g>
 <g partID="16668330">
  <g transform="translate(48.1867,111.178)">
   <g id="copper0">
    <circle cx="3.01733" stroke-width="1.57039" stroke="white" fill="white" cy="3.01733" r="0.992124" id="connector0pin"/>
   </g>
  </g>
 </g>
 <g partID="16668830">
  <g transform="translate(19.3867,111.178)">
   <g id="copper0">
    <circle cx="3.01733" stroke-width="1.57039" stroke="white" fill="white" cy="3.01733" r="0.992124" id="connector0pin"/>
   </g>
  </g>
 </g>
 <g partID="16668870">
  <g transform="translate(12.1867,111.178)">
   <g id="copper0">
    <circle cx="3.01733" stroke-width="1.57039" stroke="white" fill="white" cy="3.01733" r="0.992124" id="connector0pin"/>
   </g>
  </g>
 </g>
 <g partID="16672230">
  <g transform="translate(26.5867,111.178)">
   <g id="copper0">
    <circle cx="3.01733" stroke-width="1.57039" stroke="white" fill="white" cy="3.01733" r="0.992124" id="connector0pin"/>
   </g>
  </g>
 </g>
 <g partID="16759400">
  <g transform="translate(157.044,154.156)">
   <g transform="matrix(0,1,-1,0,0,0)">
    <g id="copper0">
     <circle cx="5.04" stroke-width="2.16" stroke="white" fill="white" cy="5.04" r="2.088" id="connector0pin"/>
     <circle cx="5.04" stroke-width="2.16" stroke="white" fill="white" cy="12.24" r="2.088" id="connector1pin"/>
    </g>
   </g>
  </g>
 </g>
 <g partID="16759430">
  <g transform="translate(157.044,132.556)">
   <g transform="matrix(0,1,-1,0,0,0)">
    <g id="copper0">
     <circle cx="5.04" stroke-width="2.16" stroke="white" fill="white" cy="5.04" r="2.088" id="connector0pin"/>
     <circle cx="5.04" stroke-width="2.16" stroke="white" fill="white" cy="12.24" r="2.088" id="connector1pin"/>
    </g>
   </g>
  </g>
 </g>
 <g partID="17396620">
  <g transform="translate(6.56405,88.6358)">
   <g transform="matrix(0,-1,1,0,0,0)">
    <g id="copper0">
     <circle cx="5.04" stroke-width="2.16" stroke="white" fill="white" cy="5.04" r="2.088" id="connector0pin"/>
     <circle cx="5.04" stroke-width="2.16" stroke="white" fill="white" cy="12.24" r="2.088" id="connector1pin"/>
     <circle cx="5.04" stroke-width="2.16" stroke="white" fill="white" cy="19.44" r="2.088" id="connector2pin"/>
     <circle cx="5.04" stroke-width="2.16" stroke="white" fill="white" cy="26.64" r="2.088" id="connector3pin"/>
     <circle cx="5.04" stroke-width="2.16" stroke="white" fill="white" cy="33.84" r="2.088" id="connector4pin"/>
     <circle cx="5.04" stroke-width="2.16" stroke="white" fill="white" cy="41.04" r="2.088" id="connector5pin"/>
     <circle cx="5.04" stroke-width="2.16" stroke="white" fill="white" cy="48.24" r="2.088" id="connector6pin"/>
     <circle cx="5.04" stroke-width="2.16" stroke="white" fill="white" cy="55.44" r="2.088" id="connector7pin"/>
    </g>
   </g>
  </g>
 </g>
 <g partID="17400500">
  <g transform="translate(78.564,88.6358)">
   <g transform="matrix(0,-1,1,0,0,0)">
    <g id="copper0">
     <circle cx="5.04" stroke-width="2.16" stroke="white" fill="white" cy="5.04" r="2.088" id="connector0pin"/>
     <circle cx="5.04" stroke-width="2.16" stroke="white" fill="white" cy="12.24" r="2.088" id="connector1pin"/>
     <circle cx="5.04" stroke-width="2.16" stroke="white" fill="white" cy="19.44" r="2.088" id="connector2pin"/>
     <circle cx="5.04" stroke-width="2.16" stroke="white" fill="white" cy="26.64" r="2.088" id="connector3pin"/>
     <circle cx="5.04" stroke-width="2.16" stroke="white" fill="white" cy="33.84" r="2.088" id="connector4pin"/>
     <circle cx="5.04" stroke-width="2.16" stroke="white" fill="white" cy="41.04" r="2.088" id="connector5pin"/>
     <circle cx="5.04" stroke-width="2.16" stroke="white" fill="white" cy="48.24" r="2.088" id="connector6pin"/>
     <circle cx="5.04" stroke-width="2.16" stroke="white" fill="white" cy="55.44" r="2.088" id="connector7pin"/>
    </g>
   </g>
  </g>
 </g>
 <g partID="17403430">
  <g transform="translate(150.564,88.6358)">
   <g transform="matrix(0,-1,1,0,0,0)">
    <g id="copper0">
     <circle cx="5.04" stroke-width="2.16" stroke="white" fill="white" cy="5.04" r="2.088" id="connector0pin"/>
     <circle cx="5.04" stroke-width="2.16" stroke="white" fill="white" cy="12.24" r="2.088" id="connector1pin"/>
     <circle cx="5.04" stroke-width="2.16" stroke="white" fill="white" cy="19.44" r="2.088" id="connector2pin"/>
     <circle cx="5.04" stroke-width="2.16" stroke="white" fill="white" cy="26.64" r="2.088" id="connector3pin"/>
     <circle cx="5.04" stroke-width="2.16" stroke="white" fill="white" cy="33.84" r="2.088" id="connector4pin"/>
     <circle cx="5.04" stroke-width="2.16" stroke="white" fill="white" cy="41.04" r="2.088" id="connector5pin"/>
     <circle cx="5.04" stroke-width="2.16" stroke="white" fill="white" cy="48.24" r="2.088" id="connector6pin"/>
     <circle cx="5.04" stroke-width="2.16" stroke="white" fill="white" cy="55.44" r="2.088" id="connector7pin"/>
    </g>
   </g>
  </g>
 </g>
 <g partID="17403830">
  <g transform="translate(222.564,88.6358)">
   <g transform="matrix(0,-1,1,0,0,0)">
    <g id="copper0">
     <circle cx="5.04" stroke-width="2.16" stroke="white" fill="white" cy="5.04" r="2.088" id="connector0pin"/>
     <circle cx="5.04" stroke-width="2.16" stroke="white" fill="white" cy="12.24" r="2.088" id="connector1pin"/>
     <circle cx="5.04" stroke-width="2.16" stroke="white" fill="white" cy="19.44" r="2.088" id="connector2pin"/>
     <circle cx="5.04" stroke-width="2.16" stroke="white" fill="white" cy="26.64" r="2.088" id="connector3pin"/>
     <circle cx="5.04" stroke-width="2.16" stroke="white" fill="white" cy="33.84" r="2.088" id="connector4pin"/>
     <circle cx="5.04" stroke-width="2.16" stroke="white" fill="white" cy="41.04" r="2.088" id="connector5pin"/>
     <circle cx="5.04" stroke-width="2.16" stroke="white" fill="white" cy="48.24" r="2.088" id="connector6pin"/>
     <circle cx="5.04" stroke-width="2.16" stroke="white" fill="white" cy="55.44" r="2.088" id="connector7pin"/>
    </g>
   </g>
  </g>
 </g>
</svg>
